<?xml version="1.0" encoding="UTF-8" standalone="no"?>
<!-- Created with Inkscape (http://www.inkscape.org/) -->
<svg
   xmlns:dc="http://purl.org/dc/elements/1.1/"
   xmlns:cc="http://creativecommons.org/ns#"
   xmlns:rdf="http://www.w3.org/1999/02/22-rdf-syntax-ns#"
   xmlns:svg="http://www.w3.org/2000/svg"
   xmlns="http://www.w3.org/2000/svg"
   xmlns:sodipodi="http://sodipodi.sourceforge.net/DTD/sodipodi-0.dtd"
   xmlns:inkscape="http://www.inkscape.org/namespaces/inkscape"
   width="48px"
   height="48px"
   id="svg2383"
   sodipodi:version="0.32"
   inkscape:version="0.46"
   sodipodi:docname="couturier.svg"
   inkscape:output_extension="org.inkscape.output.svg.inkscape"
   inkscape:export-filename="/home/babi/Dropbox/Projects/Media/couturier/Couturier/Resources/couturier-14.png"
   inkscape:export-xdpi="26.25"
   inkscape:export-ydpi="26.25">
  <defs
     id="defs2385">
    <inkscape:perspective
       sodipodi:type="inkscape:persp3d"
       inkscape:vp_x="0 : 24 : 1"
       inkscape:vp_y="0 : 1000 : 0"
       inkscape:vp_z="48 : 24 : 1"
       inkscape:persp3d-origin="24 : 16 : 1"
       id="perspective2391" />
    <inkscape:perspective
       sodipodi:type="inkscape:persp3d"
       inkscape:vp_x="0 : 526.18109 : 1"
       inkscape:vp_y="0 : 1000 : 0"
       inkscape:vp_z="744.09448 : 526.18109 : 1"
       inkscape:persp3d-origin="372.04724 : 350.78739 : 1"
       id="perspective2390" />
    <inkscape:perspective
       id="perspective10"
       inkscape:persp3d-origin="372.04724 : 350.78739 : 1"
       inkscape:vp_z="744.09448 : 526.18109 : 1"
       inkscape:vp_y="0 : 1000 : 0"
       inkscape:vp_x="0 : 526.18109 : 1"
       sodipodi:type="inkscape:persp3d" />
    <inkscape:perspective
       sodipodi:type="inkscape:persp3d"
       inkscape:vp_x="0 : 526.18109 : 1"
       inkscape:vp_y="0 : 1000 : 0"
       inkscape:vp_z="744.09448 : 526.18109 : 1"
       inkscape:persp3d-origin="372.04724 : 350.78739 : 1"
       id="perspective3254" />
    <inkscape:perspective
       id="perspective3252"
       inkscape:persp3d-origin="372.04724 : 350.78739 : 1"
       inkscape:vp_z="744.09448 : 526.18109 : 1"
       inkscape:vp_y="0 : 1000 : 0"
       inkscape:vp_x="0 : 526.18109 : 1"
       sodipodi:type="inkscape:persp3d" />
    <filter
       inkscape:collect="always"
       id="filter3341"
       x="-0.15288764"
       width="1.3057753"
       y="-0.55785444"
       height="2.1157089">
      <feGaussianBlur
         inkscape:collect="always"
         stdDeviation="1.2671086"
         id="feGaussianBlur3343" />
    </filter>
    <filter
       inkscape:collect="always"
       id="filter3361"
       x="-0.4967649"
       width="1.9935298"
       y="-0.75739864"
       height="2.5147973">
      <feGaussianBlur
         inkscape:collect="always"
         stdDeviation="3.535463"
         id="feGaussianBlur3363" />
    </filter>
  </defs>
  <sodipodi:namedview
     id="base"
     pagecolor="#ffffff"
     bordercolor="#666666"
     borderopacity="1.0"
     inkscape:pageopacity="0.0"
     inkscape:pageshadow="2"
     inkscape:zoom="18.145833"
     inkscape:cx="24"
     inkscape:cy="24"
     inkscape:current-layer="layer1"
     showgrid="true"
     inkscape:grid-bbox="true"
     inkscape:document-units="px"
     inkscape:window-width="1920"
     inkscape:window-height="1067"
     inkscape:window-x="0"
     inkscape:window-y="25" />
  <metadata
     id="metadata2388">
    <rdf:RDF>
      <cc:Work
         rdf:about="">
        <dc:format>image/svg+xml</dc:format>
        <dc:type
           rdf:resource="http://purl.org/dc/dcmitype/StillImage" />
      </cc:Work>
    </rdf:RDF>
  </metadata>
  <g
     id="layer1"
     inkscape:label="Layer 1"
     inkscape:groupmode="layer">
    <path
       style="fill:#2e3436;fill-opacity:1;stroke:none;stroke-width:1;stroke-linecap:round;stroke-miterlimit:4;stroke-opacity:1;filter:url(#filter3341)"
       d="M 26.911809,40.910561 C 31.243222,40.097171 36.751416,39.640135 36.921033,40.54337 C 37.090651,41.446601 32.535363,44.423355 28.203948,45.236744 C 23.872536,46.050134 17.208116,44.793843 17.0385,43.890609 C 16.868882,42.987375 22.580394,41.723952 26.911809,40.910561 z"
       id="path3335"
       sodipodi:nodetypes="csssc"
       transform="matrix(1.399485,0,0,1.2443681,-11.194414,-11.496904)" />
    <path
       sodipodi:type="arc"
       style="fill:#75507b;fill-opacity:1;stroke:#5c3566;stroke-width:0.98201317;stroke-linecap:round;stroke-miterlimit:4;stroke-dasharray:none;stroke-opacity:1"
       id="path3366"
       sodipodi:cx="350.25989"
       sodipodi:cy="475.09393"
       sodipodi:rx="20.300251"
       sodipodi:ry="21.26693"
       d="M 370.56014,475.09393 A 20.300251,21.26693 0 1 1 329.95964,475.09393 A 20.300251,21.26693 0 1 1 370.56014,475.09393 z"
       transform="matrix(1.04228,0,0,0.9949035,-340.71762,-449.55327)" />
    <path
       sodipodi:type="arc"
       style="fill:#75507b;fill-opacity:1;stroke:#ad7fa8;stroke-width:0.33024809;stroke-linecap:round;stroke-miterlimit:4;stroke-dasharray:none;stroke-opacity:1"
       id="path3202"
       sodipodi:cx="25.063637"
       sodipodi:cy="12.654546"
       sodipodi:rx="5.9727273"
       sodipodi:ry="7.0363636"
       d="M 31.036364,12.654546 A 5.9727273,7.0363636 0 1 1 19.090909,12.654546 A 5.9727273,7.0363636 0 1 1 31.036364,12.654546 z"
       transform="matrix(3.2405642,-0.5814907,0.4918779,2.7411653,-63.093562,3.0054134)" />
    <path
       style="opacity:0.13432836000000001;fill:#ffffff;fill-opacity:1;stroke:none;stroke-width:0.33024808999999999;stroke-linecap:round;stroke-miterlimit:4;stroke-opacity:1"
       d="M 43.09931,19.755172 C 43.205906,20.349214 43.810125,23.004792 43.271906,23.023751 C 40.834656,23.109602 35.719996,22.139166 30.896465,22.545359 C 25.31773,23.015148 21.274037,24.757657 17.443306,26.739385 C 11.329476,29.902215 10.143673,30.869074 7.3768656,31.398697 C 7.0423268,31.462734 5.817282,27.676585 5.6031968,26.483518 C 3.7526177,16.170506 10.649828,6.2933755 20.998757,4.4363515 C 31.347682,2.5793282 41.248731,9.4421592 43.09931,19.755172 z"
       id="path3290"
       sodipodi:nodetypes="cssssssc" />
    <path
       transform="matrix(2.1816939e-2,5.1474758e-3,-2.0625494e-2,4.2173567e-2,43.906027,6.7266565)"
       d="M -93.313553,330.07935 A 183.93538,183.93538 0 1 1 -461.18431,330.07935 A 183.93538,183.93538 0 1 1 -93.313553,330.07935 z"
       sodipodi:ry="183.93538"
       sodipodi:rx="183.93538"
       sodipodi:cy="330.07935"
       sodipodi:cx="-277.24893"
       id="path4340"
       style="fill:#ffffff;fill-opacity:1;stroke:#ad7fa8;stroke-width:31.21545982;stroke-linecap:round;stroke-miterlimit:4;stroke-dasharray:none;stroke-opacity:1"
       sodipodi:type="arc"
       inkscape:transform-center-x="-2.0609507"
       inkscape:transform-center-y="-1.8039345" />
    <path
       sodipodi:nodetypes="ccccccccccccc"
       id="path4342"
       d="M 24.981512,37.432518 C 24.981512,37.432518 25.179342,33.330261 24.691163,29.395037 C 24.043793,25.519488 21.169518,23.46338 21.169518,23.46338 C 21.169518,23.46338 22.444263,19.427855 21.488201,15.857971 C 20.759762,13.137974 18.276136,11.789042 16.040266,11.813298 C 13.213943,11.853748 12.035239,13.248299 11.397083,14.763643 C 10.683098,16.415764 10.886875,18.614478 11.350732,19.974082 C 11.350732,19.974082 11.886993,21.738135 14.2894,23.310037 C 16.40479,24.566145 17.827139,24.657708 19.370386,25.571438 C 21.644249,27.152587 21.821064,29.760312 21.821064,29.760312 C 21.821064,29.760312 22.163886,33.17452 22.163886,33.862627 C 22.163886,34.687937 22.19222,37.491467 22.19222,37.491467 L 24.981512,37.432518 z"
       style="fill:#ffffff;fill-opacity:1;fill-rule:evenodd;stroke:#ad7fa8;stroke-width:1;stroke-linecap:butt;stroke-linejoin:miter;stroke-miterlimit:4;stroke-dasharray:none;stroke-opacity:1" />
    <path
       style="opacity:0.51119403;fill:#ffffff;fill-opacity:1;stroke:none;stroke-width:1;stroke-linecap:round;stroke-miterlimit:4;stroke-opacity:1;filter:url(#filter3361)"
       d="M 19.530189,11.31798 C 15.862551,13.761581 10.97253,16.337776 10.462964,15.572959 C 9.9533982,14.808145 12.98043,10.286113 16.648069,7.8425129 C 20.315706,5.3989131 26.94024,3.9469126 27.449806,4.7117279 C 27.959372,5.4765431 23.197827,8.8743807 19.530189,11.31798 z"
       id="path3312"
       sodipodi:nodetypes="csssc" />
  </g>
</svg>
